<?xml version="1.0" encoding="UTF-8" standalone="no"?>
<!-- Created with Inkscape (http://www.inkscape.org/) -->

<svg
   width="54.199898mm"
   height="54.252815mm"
   viewBox="0 0 54.199898 54.252815"
   version="1.1"
   id="svg877"
   xmlns="http://www.w3.org/2000/svg"
   xmlns:svg="http://www.w3.org/2000/svg">
  <defs
     id="defs874" />
  <g
     id="layer1"
     transform="translate(-148.53706,-151.46621)">
    <path
       class="st0"
       d="m 176.00743,166.81866 c -0.21167,-0.21167 -0.47625,-0.21167 -0.71438,0 l -11.43,11.43 c -0.21166,0.21167 -0.21166,0.47625 0,0.71437 l 11.43,11.43 c 0.21167,0.21167 0.47625,0.21167 0.71438,0 l 11.43,-11.43 c 0.21166,-0.21166 0.21166,-0.47625 0,-0.71437 z"
       id="path4"
       style="fill:#000000;fill-opacity:1;stroke-width:0.264583" />
    <path
       class="st0"
       d="m 181.1668,153.74824 c -3.04271,-3.04271 -7.96396,-3.04271 -11.00666,0 l -19.34105,19.34104 c -3.0427,3.04271 -3.0427,7.96396 0,11.00667 l 19.34105,19.34104 c 3.0427,3.04271 7.96395,3.04271 11.00666,0 l 19.28813,-19.39396 c 3.04271,-3.0427 3.04271,-7.96395 0,-11.00666 z m 14.2875,26.16729 -18.46791,18.46792 -0.0529,0.0529 c -0.76729,0.71437 -1.905,0.71437 -2.64583,-0.0529 l -18.46792,-18.46792 -0.0529,-0.0529 c -0.71437,-0.76729 -0.71437,-1.905 0.0529,-2.64584 l 18.52083,-18.52083 0.0529,-0.0529 c 0.76729,-0.66145 1.95792,-0.66145 2.64583,0.10584 l 18.415,18.415 c 0.76729,0.74083 0.76729,1.98437 0,2.75166 z"
       id="path6"
       style="fill:#000000;fill-opacity:1;stroke-width:0.264583" />
  </g>
</svg>
